<?xml version="1.0" encoding="iso-8859-1"?>
<!-- Generator: Adobe Illustrator 18.1.1, SVG Export Plug-In . SVG Version: 6.00 Build 0)  -->
<svg  version="1.1" id="Capa_1" xmlns="http://www.w3.org/2000/svg" xmlns:xlink="http://www.w3.org/1999/xlink" x="0px" y="0px"
	 viewBox="0 0 21.764 21.764" style="enable-background:new 0 0 21.764 21.764;" xml:space="preserve">

	<g >
		<circle  cx="10.6" cy="9.32" r="1.462"/>
		<path  d="M7.932,16.036c-0.237-0.146-0.469-0.299-0.698-0.453c-0.118-0.08-0.219-0.148-0.339-0.236
			l-0.179-0.129L6.52,15.085c-0.525-0.35-1.118-0.639-1.775-0.795c-0.328-0.078-0.674-0.115-1.022-0.098
			c-0.174,0.012-0.348,0.035-0.52,0.074c-0.17,0.043-0.337,0.098-0.495,0.17c-0.633,0.291-1.107,0.836-1.249,1.441
			c0.48-0.381,1.002-0.58,1.489-0.613c0.489-0.031,0.953,0.084,1.411,0.275s0.902,0.465,1.344,0.762
			c0.206,0.146,0.463,0.33,0.723,0.5c0.255,0.17,0.52,0.324,0.787,0.471c1.07,0.59,2.211,1.021,3.376,1.307
			c0.585,0.141,1.174,0.25,1.769,0.313c0.594,0.064,1.193,0.094,1.79,0.043c-1.113-0.422-2.184-0.85-3.225-1.324
			C9.882,17.138,8.88,16.622,7.932,16.036z"/>
		<path  d="M21.762,9.424L19.22,8.53l-1.421,0.179l-0.016,0.043L5.107,4.848l0.017-0.045l-0.973-1.05
			l-2.522-0.95C0.863,3.855,0.915,4.7,0.915,4.7l2.522,0.95l1.424-0.148L4.87,5.477l1.433,0.441
			c-0.048,0.161-0.034,0.339,0.06,0.493c0.001,0.002,0.002,0.004,0.002,0.004l1.119,4.323l-0.373,1.917
			c-0.813-0.33-1.688-0.564-2.594-0.592c-0.951-0.037-1.934,0.178-2.743,0.666c-0.403,0.243-0.763,0.542-1.065,0.885
			c-0.3,0.342-0.551,0.725-0.709,1.139c0.594-0.648,1.32-1.113,2.081-1.371c0.763-0.26,1.559-0.297,2.332-0.17
			c0.775,0.127,1.53,0.404,2.256,0.764c0.362,0.182,0.721,0.377,1.069,0.596c0.352,0.213,0.697,0.441,1.034,0.686
			c0.162,0.115,0.357,0.254,0.544,0.379c0.188,0.127,0.377,0.252,0.571,0.369c0.39,0.234,0.79,0.455,1.208,0.648
			c0.835,0.383,1.739,0.682,2.693,0.758c0.476,0.039,0.962,0.02,1.436-0.074s0.932-0.264,1.341-0.506s0.77-0.551,1.061-0.906
			c0.29-0.354,0.521-0.75,0.653-1.172c-0.554,0.682-1.266,1.174-2.02,1.422c-0.755,0.252-1.547,0.252-2.312,0.088
			c-0.767-0.164-1.514-0.475-2.229-0.861c-0.117-0.063-0.232-0.129-0.348-0.195l1.009-3.166l3.45-2.721c0.002,0,0.003,0,0.005-0.003
			c0.145-0.087,0.24-0.225,0.278-0.377l1.447,0.445l-0.011,0.03l0.996,1.029l2.542,0.894C21.832,10.268,21.762,9.424,21.762,9.424z
			 M12.41,10.457c-0.005,0.003-0.009,0.006-0.013,0.009c-2.641,1.848-3.779-1.064-3.779-1.064L7.599,6.317l7.237,2.229L12.41,10.457
			z"/>
	</g>
</svg>
