<svg viewBox="0 0 512 512" xmlns="http://www.w3.org/2000/svg"><g><g><path d="m248 336h-160v-104h48v-16h64v16h48z" fill="#dff1fc"/><path d="m476 452-52-52 52-52a16.971 16.971 0 0 0 0-24 16.971 16.971 0 0 0 -24 0l-52 52-52-52a16.971 16.971 0 0 0 -24 0 16.971 16.971 0 0 0 0 24l52 52-52 52a16.971 16.971 0 0 0 0 24 16.971 16.971 0 0 0 24 0l52-52 52 52a16.971 16.971 0 0 0 24 0 16.97 16.97 0 0 0 0-24z" fill="#e22526"/><path d="m476 452a16.973 16.973 0 0 1 -21.33 26.18 16.645 16.645 0 0 1 -2.67-2.18l-52-52-52 52a16.982 16.982 0 0 1 -21.33 2.18 16.645 16.645 0 0 1 -2.67-2.18 16.966 16.966 0 0 1 0-24l52-52-52-52a16.971 16.971 0 1 1 24-24l43.03 43.03 8.97 8.97 52-52a16.971 16.971 0 0 1 24 24l-52 52z" fill="#d20e0f"/><path d="m459.03 451.03a16.962 16.962 0 0 1 -4.36 27.15 16.645 16.645 0 0 1 -2.67-2.18l-52-52-8.97-8.97-60 60a16.913 16.913 0 0 1 -4.36 3.15 16.645 16.645 0 0 1 -2.67-2.18 16.966 16.966 0 0 1 0-24l52-52-52-52a16.974 16.974 0 0 1 4.35-27.15 16.715 16.715 0 0 1 2.68 2.18l60.97 60.97 8-8 52-52a16.865 16.865 0 0 1 4.35-3.15 16.715 16.715 0 0 1 2.68 2.18 16.966 16.966 0 0 1 0 24l-52 52z" fill="#e22526"/><g><g><path d="m248 336h-160v-112h32l48 48 48-48h32z" fill="#f98800"/><path d="m88 272h160v32h-160z" fill="#ffec00"/><path d="m88 224h32v112h-32z" fill="#ffec00"/><path d="m96 232h16v96h-16z" fill="#dff1fc"/><path d="m216 224h32v112h-32z" fill="#ffec00"/><path d="m224 232h16v96h-16z" fill="#dff1fc"/><path d="m168 344a8 8 0 0 1 -8-8v-64a8 8 0 0 1 16 0v64a8 8 0 0 1 -8 8z" fill="#ffec00"/><path d="m88 328h160v16h-160z" fill="#ffec00"/><path d="m120 280h96v16h-96z" fill="#dff1fc"/></g><path d="m96 424v32h-8a16 16 0 0 0 -16 16v16h80v-64z" fill="#8e4b19"/><path d="m240 424v32h8a16 16 0 0 1 16 16v16h-80v-64z" fill="#8e4b19"/><path d="m184 336h-96v80a8 8 0 0 0 8 8h56v-40h32v40h56a8 8 0 0 0 8-8v-80z" fill="#00587e"/><g><path d="m96 424v32h-8a16 16 0 0 0 -16 16v16h48v-64z" fill="#c1641f"/><path d="m248 456h-8v-32h-24v64h48v-16a16 16 0 0 0 -16-16z" fill="#c1641f"/><g fill="#007bb1"><path d="m120 336h-32v80a8 8 0 0 0 8 8h24z"/><path d="m240 424a8 8 0 0 0 8-8v-80h-32v88z"/><path d="m120 336h96v32h-96z"/></g></g><path d="m88 240a0 0 0 0 1 0 0v96a0 0 0 0 1 0 0h-48a0 0 0 0 1 0 0v-48a48 48 0 0 1 48-48z" fill="#e22526"/><path d="m72 368a16 16 0 0 1 -16 16 16 16 0 0 1 -16-16v-32h48v32z" fill="#fbe2bc"/><g><path d="m88 240v6.437a47.97 47.97 0 0 0 -24 41.563v48h-24v-48a48 48 0 0 1 48-48z" fill="#d20e0f"/><path d="m64 368a15.924 15.924 0 0 0 4 10.559 15.985 15.985 0 0 1 -28-10.559v-32h24z" fill="#f9ce95"/></g><path d="m248 240h168v48h-168z" fill="#e22526"/><path d="m248 264h168v24h-168z" fill="#d20e0f"/></g><g><circle cx="168" cy="160" fill="#fac8b2" r="80"/><path d="m112 112v105.111a79.949 79.949 0 0 0 112 0v-105.111z" fill="#fac8b2"/><circle cx="136" cy="184" fill="#2c3f51" r="8"/><circle cx="200" cy="184" fill="#2c3f51" r="8"/><path d="m184 208a7.978 7.978 0 0 1 -5.657-2.343 3.315 3.315 0 0 0 -4.686 0 8 8 0 0 1 -11.314 0 3.315 3.315 0 0 0 -4.686 0 8 8 0 0 1 -11.314-11.314 19.347 19.347 0 0 1 21.657-3.923 19.35 19.35 0 0 1 21.657 3.923 8 8 0 0 1 -5.657 13.657z" fill="#683b11"/><path d="m168 80a72 72 0 1 1 -72 72 72 72 0 0 1 72-72 80 80 0 1 0 80 80 80 80 0 0 0 -80-80z" fill="#f4b7a2"/><path d="m248 160a80 80 0 1 0 -136 57.111v-105.111h112v105.111a79.743 79.743 0 0 0 24-57.111z" fill="#683b11"/><g><path d="m112 232a8 8 0 0 1 -8-8v-112a8 8 0 0 1 16 0v112a8 8 0 0 1 -8 8z" fill="#c1641f"/><path d="m264 128a96 96 0 0 0 -192 0 16 16 0 0 0 -16 16 16 16 0 0 0 16 16h192a16 16 0 0 0 16-16 16 16 0 0 0 -16-16z" fill="#ff0"/><path d="m144 24h48v48h-48z" fill="#ffec00"/><path d="m224 232a8 8 0 0 1 -8-8v-112a8 8 0 0 1 16 0v112a8 8 0 0 1 -8 8z" fill="#c1641f"/><circle cx="128" cy="64" fill="#fff" r="8"/><path d="m98.656 112.577a8.008 8.008 0 0 1 -7.756-9.977 60.141 60.141 0 0 1 13.666-25.456 8 8 0 0 1 11.856 10.745 44.08 44.08 0 0 0 -10.022 18.659 8 8 0 0 1 -7.744 6.029z" fill="#fff"/><g><path d="m72 160h192a16 16 0 0 0 16-16h-224a16 16 0 0 0 16 16z" fill="#fcc200"/><g><path d="m264 128a96.074 96.074 0 0 0 -3.535-25.887c-24.086 20.336-68.465 25.887-68.465 25.887z" fill="#ffce00"/><path d="m209.707 41.523a95.42 95.42 0 0 0 -17.707-6.488v36.965c7.855-9.419 13.913-18.812 17.707-30.477z" fill="#ffce00"/><path d="m264 128h-72s44.379-5.551 68.465-25.887a95.931 95.931 0 0 0 -25.718-43.094 53.71 53.71 0 0 1 -10.805 24.39c-9.776 12.469-23.982 20.757-38.682 26.67a170.715 170.715 0 0 1 -112.371 4.856 96.753 96.753 0 0 0 -.889 13.065 16 16 0 0 0 -16 16h224a16 16 0 0 0 -16-16z" fill="#ffec00"/></g></g><circle cx="176" cy="112" fill="#ffce00" r="24"/><circle cx="168" cy="112" fill="#dff1fc" r="24"/><circle cx="168" cy="112" fill="#aedef8" r="16"/><g fill="#fcc200"><path d="m112 136h-40a8 8 0 0 1 0-16h40a8 8 0 0 1 0 16z"/><path d="m264 136h-40a8 8 0 0 1 0-16h40a8 8 0 0 1 0 16z"/></g></g><path d="m120 160h96v8h-96z" fill="#f4b7a2"/><g fill="#f05a29"><circle cx="204" cy="212" r="12"/><circle cx="132" cy="212" r="12"/></g></g><g><path d="m360 144v-88a16 16 0 0 1 16-16 16 16 0 0 1 16 16v-16a16 16 0 0 1 16-16 16 16 0 0 1 16 16 16 16 0 0 1 16-16 16 16 0 0 1 16 16v24a16 16 0 0 1 16-16 16 16 0 0 1 16 16v144a80 80 0 0 1 -80 80 80 80 0 0 1 -80-80v-64a16 16 0 0 1 16-16 16 16 0 0 1 16 16z" fill="#fac8b2"/><path d="m360 128h128a0 0 0 0 1 0 0v80a80 80 0 0 1 -80 80 48 48 0 0 1 -48-48v-112a0 0 0 0 1 0 0z" fill="#fac8b2"/><path d="m328 208v-64a16 16 0 0 1 16-16 16 16 0 0 1 16 16v56a56 56 0 0 1 56 56v32h-8a80 80 0 0 1 -80-80z" fill="#fac8b2"/><g fill="#f4b7a2"><path d="m392 136a8 8 0 0 1 -8-8v-72a8 8 0 0 1 16 0v72a8 8 0 0 1 -8 8z"/><path d="m360 208a8 8 0 0 1 -8-8v-48a8 8 0 0 1 16 0v48a8 8 0 0 1 -8 8z"/><g><path d="m456 168h-96a8 8 0 0 0 0 16h96a8 8 0 0 0 0-16z"/><path d="m444.567 198.163a64.136 64.136 0 0 0 -28.544 26.937 64.044 64.044 0 0 0 -56.023-33.1 8 8 0 0 0 0 16 48.054 48.054 0 0 1 48 48 8 8 0 0 0 16 0 48.262 48.262 0 0 1 27.433-43.386 8 8 0 1 0 -6.866-14.451z"/></g><path d="m424 136a8 8 0 0 1 -8-8v-88a8 8 0 0 1 16 0v88a8 8 0 0 1 -8 8z"/><path d="m456 152a8 8 0 0 1 -8-8v-80a8 8 0 0 1 16 0v80a8 8 0 0 1 -8 8z"/><path d="m330.239 226.8a80.019 80.019 0 0 0 75.291 61.138q1.227.062 2.47.062h8v-.4a80.061 80.061 0 0 0 69.784-60.828c-40.263 48.811-115.269 48.82-155.545.028z"/></g></g></g><path d="m472 40a23.882 23.882 0 0 0 -8 1.371c1.042-21.379-24.192-33.412-40-19.245-13.079-11.958-34.7-5.4-39.158 11.562-15.229-6.382-33.188 5.712-32.842 22.312v65.371c-15.2-5.643-32.286 6.375-32 22.629v64a87.787 87.787 0 0 0 3.327 24h-67.327v-8a8 8 0 0 0 -8-8h-12.167a87.61 87.61 0 0 0 19.8-48h8.367c27.088-.552 33.184-37.469 7.785-46.716a103.931 103.931 0 0 0 -71.785-92.251v-5.033a8 8 0 0 0 -8-8h-48a8 8 0 0 0 -8 8v5.033a103.932 103.932 0 0 0 -71.785 92.252c-16.665 5.583-21.733 27.328-9.182 39.7a23.884 23.884 0 0 0 16.967 7.015h8.367a87.61 87.61 0 0 0 19.8 48h-12.167a8 8 0 0 0 -8 8v8.581a56.078 56.078 0 0 0 -48 55.419v80c.5 27.039 37.358 33.061 46.629 8h1.371v40a16 16 0 0 0 8 13.835v18.165a24.027 24.027 0 0 0 -24 24v16a8 8 0 0 0 8 8h80a8 8 0 0 0 8-8c0-21.132 0-75.551 0-96h16v96a8 8 0 0 0 8 8h80a8 8 0 0 0 8-8v-16a24.027 24.027 0 0 0 -24-24v-18.165a16 16 0 0 0 8-13.835v-120h152a88.1 88.1 0 0 0 88-88v-144a24.028 24.028 0 0 0 -24-24zm-232 200v88h-16v-96h16zm-64 88v-16h32v16zm-48 0v-16h32v16zm88-160v45.608c-26.077 24.341-69.93 24.334-96 0v-45.608zm-88 75.314 20.686 20.686h-20.686zm80 20.686h-20.686l20.686-20.686zm-53.766-17.079a88.7 88.7 0 0 0 27.532 0l-13.766 13.766zm-26.234 33.079h32v16h-32zm48 0h32v16h-32zm56-87.079v-24.921h7.545a71.405 71.405 0 0 1 -7.545 24.921zm-165.653-43.247c-5.033-4.896-1.375-13.791 5.653-13.674h40a8 8 0 0 0 0-16h-31.63a87.957 87.957 0 0 1 55.63-74v26c.391 10.6 15.608 10.6 16 0v-40h32v40c.391 10.6 15.608 10.6 16 0v-26a87.957 87.957 0 0 1 55.63 74h-31.63a8 8 0 0 0 0 16h40a8 8 0 0 1 0 16h-192a7.971 7.971 0 0 1 -5.653-2.326zm37.653 18.326v24.921a71.405 71.405 0 0 1 -7.545-24.921zm-8 64h16v96h-16zm-48 56a40.071 40.071 0 0 1 32-39.2v79.2h-32zm24 72a8 8 0 0 0 -8 8 8 8 0 0 1 -16 0v-24h32v16zm72 120h-64v-8a8.009 8.009 0 0 1 8-8h8a8 8 0 0 0 8-8v-24h40zm8-104a8 8 0 0 0 -8 8v32h-48v-72h144v72h-48v-32a8 8 0 0 0 -8-8zm104 96v8h-64v-48h40v24a8 8 0 0 0 8 8h8a8.009 8.009 0 0 1 8 8zm0-192v-32h73.628a88.632 88.632 0 0 0 27.834 32zm152 0a71.974 71.974 0 0 1 -72-72v-64a8 8 0 0 1 16 0v56a8 8 0 0 0 16 0v-144a8 8 0 0 1 16 0v72c.394 10.6 15.608 10.6 16 0 0-11.59 0-77.966 0-88a8 8 0 0 1 16 0v88c.386 10.594 15.609 10.6 16 0v-88c.369-10.54 15.585-10.647 16 0-.01 15.675.007 86.88 0 104 .374 10.577 15.608 10.615 16 0v-80c.367-10.547 15.592-10.637 16 0v144a72.081 72.081 0 0 1 -72 72zm-280-96a8 8 0 0 1 8-8c10.6.392 10.6 15.609 0 16a8 8 0 0 1 -8-8zm64 0a8 8 0 0 1 8-8c10.6.392 10.6 15.609 0 16a8 8 0 0 1 -8-8zm-45.657 10.343a19.347 19.347 0 0 1 21.657-3.923 19.35 19.35 0 0 1 21.657 3.923 8 8 0 0 1 -11.314 11.314 3.315 3.315 0 0 0 -4.686 0 8 8 0 0 1 -11.314 0 3.315 3.315 0 0 0 -4.686 0c-7.735 7.229-18.548-3.565-11.314-11.314zm21.657-50.343a32.036 32.036 0 0 0 32-32c-1.758-42.452-62.249-42.44-64 0a32.036 32.036 0 0 0 32 32zm0-48a16.019 16.019 0 0 1 16 16c-.879 21.226-31.124 21.22-32 0a16.019 16.019 0 0 1 16-16zm267.314 304 46.343-46.343a24.971 24.971 0 0 0 -35.314-35.314l-46.343 46.344-46.343-46.344a24.971 24.971 0 1 0 -35.314 35.314l46.343 46.343-46.343 46.343a24.971 24.971 0 0 0 35.314 35.314l46.343-46.344 46.343 46.343a24.891 24.891 0 0 0 17.657 7.3c13.284.273 25.238-11.38 24.971-24.959a24.8 24.8 0 0 0 -7.314-17.657zm35.03 70.343a8.981 8.981 0 0 1 -12.687 0l-52-52a8 8 0 0 0 -11.314 0l-52 52c-5.523 5.612-15.391 1.576-15.314-6.343a8.911 8.911 0 0 1 2.628-6.343l52-52a8 8 0 0 0 0-11.314l-52-52a8.97 8.97 0 0 1 12.686-12.686l52 52a8 8 0 0 0 11.314 0l52-52a8.97 8.97 0 0 1 12.686 12.686l-52 52a8 8 0 0 0 0 11.314l52 52a9.014 9.014 0 0 1 .001 12.686z"/></g></svg>